<svg id="visual"
     viewBox="0 0 960 540"
     xmlns="http://www.w3.org/2000/svg"
     version="1.1"
     preserveAspectRatio="none"
     style="width: 100%; height: 100%; display: block;"><rect x="0" y="0" width="960" height="540" fill="#1F41AF"></rect><path d="M0 468L22.8 457.2C45.7 446.3 91.3 424.7 137 412.3C182.7 400 228.3 397 274 388.8C319.7 380.7 365.3 367.3 411.2 375.7C457 384 503 414 548.8 416.3C594.7 418.7 640.3 393.3 686 389.5C731.7 385.7 777.3 403.3 823 409.8C868.7 416.3 914.3 411.7 937.2 409.3L960 407L960 541L937.2 541C914.3 541 868.7 541 823 541C777.3 541 731.7 541 686 541C640.3 541 594.7 541 548.8 541C503 541 457 541 411.2 541C365.3 541 319.7 541 274 541C228.3 541 182.7 541 137 541C91.3 541 45.7 541 22.8 541L0 541Z" fill="#ffffff" stroke-linecap="round" stroke-linejoin="miter"></path></svg>