<svg id="visual" viewBox="0 0 960 540" width="960" height="540" xmlns="http://www.w3.org/2000/svg" version="1.1"><rect x="0" y="0" width="960" height="540" fill="#1F41AF"></rect><path d="M0 86L22.8 83.5C45.7 81 91.3 76 137 76.7C182.7 77.3 228.3 83.7 274 93.5C319.7 103.3 365.3 116.7 411.2 129.8C457 143 503 156 548.8 148.8C594.7 141.7 640.3 114.3 686 119.7C731.7 125 777.3 163 823 160.8C868.7 158.7 914.3 116.3 937.2 95.2L960 74L960 0L937.2 0C914.3 0 868.7 0 823 0C777.3 0 731.7 0 686 0C640.3 0 594.7 0 548.8 0C503 0 457 0 411.2 0C365.3 0 319.7 0 274 0C228.3 0 182.7 0 137 0C91.3 0 45.7 0 22.8 0L0 0Z" fill="#ffffff" stroke-linecap="round" stroke-linejoin="miter"></path></svg>